<?xml version="1.0" standalone="no"?>
<!DOCTYPE svg PUBLIC "-//W3C//DTD SVG 20010904//EN"
 "http://www.w3.org/TR/2001/REC-SVG-20010904/DTD/svg10.dtd">
<svg version="1.0" xmlns="http://www.w3.org/2000/svg"
 width="512.000000pt" height="512.000000pt" viewBox="0 0 512.000000 512.000000"
 preserveAspectRatio="xMidYMid meet">
<metadata>
Created by potrace 1.14, written by Peter Selinger 2001-2017
</metadata>
<g transform="translate(0.000000,512.000000) scale(0.100000,-0.100000)"
fill="#000000" stroke="none">
<path d="M2226 4289 c-139 -24 -321 -85 -461 -153 -545 -267 -920 -782 -1006
-1384 -18 -130 -6 -492 20 -615 121 -557 471 -1009 976 -1261 175 -87 147
-106 250 166 133 354 259 675 293 750 l30 66 -66 33 c-142 70 -255 226 -310
427 -24 90 -26 112 -26 302 0 182 2 215 23 300 67 267 193 485 396 678 52 51
99 92 103 92 4 0 8 -57 8 -128 3 -213 57 -362 177 -482 50 -50 85 -73 192
-125 192 -93 285 -186 335 -331 48 -137 32 -332 -40 -480 -48 -99 -149 -201
-253 -253 -37 -19 -66 -39 -63 -45 45 -103 152 -374 261 -661 75 -198 140
-364 144 -368 11 -11 134 42 251 108 445 251 769 698 882 1215 20 94 23 132
23 360 0 229 -2 266 -23 363 -122 567 -473 1020 -987 1272 -140 69 -326 130
-473 155 -159 28 -498 27 -656 -1z"/>
</g>
</svg>
